<?xml version="1.0" standalone="no"?>
<!DOCTYPE svg PUBLIC "-//W3C//DTD SVG 20010904//EN"
 "http://www.w3.org/TR/2001/REC-SVG-20010904/DTD/svg10.dtd">
<svg version="1.0" xmlns="http://www.w3.org/2000/svg"
 width="500.000000pt" height="500.000000pt" viewBox="0 0 500.000000 500.000000"
 preserveAspectRatio="xMidYMid meet">
<metadata>
Created by potrace 1.14, written by Peter Selinger 2001-2017
</metadata>
<g transform="translate(0.000000,500.000000) scale(0.100000,-0.100000)"
fill="#000000" stroke="none">
<path d="M1767 4922 c-15 -3 -17 -28 -17 -268 l0 -264 -690 0 -690 0 0 -265 0
-265 78 0 c76 0 4042 0 4135 0 l47 0 0 265 0 265 -690 0 -690 0 0 265 0 265
-27 0 c-149 3 -1444 4 -1456 2z"/>
<path d="M574 3550 c3 -36 7 -76 10 -90 2 -14 7 -47 10 -75 4 -27 8 -66 11
-85 2 -19 7 -55 10 -80 2 -25 7 -63 10 -85 3 -22 8 -58 10 -80 4 -38 8 -67 21
-165 8 -64 12 -98 19 -155 7 -61 12 -95 20 -160 4 -27 9 -66 11 -85 7 -61 14
-114 18 -135 2 -11 7 -51 11 -88 3 -37 8 -76 9 -85 2 -9 7 -44 10 -77 4 -33 9
-73 12 -90 2 -16 6 -48 9 -70 2 -21 9 -75 15 -120 6 -44 13 -96 15 -115 2 -19
11 -91 20 -160 9 -69 18 -145 21 -170 3 -25 7 -56 9 -70 2 -14 7 -47 10 -75 6
-48 11 -84 20 -150 3 -16 7 -52 10 -80 3 -27 8 -63 11 -80 2 -16 7 -50 9 -75
2 -25 13 -114 24 -199 11 -84 20 -156 19 -160 -1 -3 2 -22 5 -41 4 -19 9 -57
12 -85 3 -27 7 -61 10 -75 5 -29 17 -133 19 -172 l1 -28 1492 0 c1415 0 1493
1 1494 18 0 9 2 26 5 37 2 11 6 43 9 70 8 66 32 261 39 310 2 11 6 49 10 85 4
36 11 90 16 120 5 30 12 84 15 120 3 36 8 72 10 80 2 8 7 42 11 75 3 33 8 69
9 80 2 11 6 45 9 75 4 30 9 66 11 80 3 14 7 50 10 80 3 30 8 66 10 80 2 14 7
48 10 75 3 28 10 84 15 125 16 111 17 121 40 300 23 188 27 221 35 270 2 19 7
58 10 85 3 28 8 68 10 90 3 22 8 56 10 75 8 66 14 115 20 155 3 22 7 60 10 85
2 25 7 61 9 80 3 19 10 73 16 120 13 103 20 157 25 190 3 23 7 58 19 160 3 19
8 58 12 85 4 28 8 64 10 80 1 17 3 32 4 35 1 3 2 8 1 12 0 4 4 43 10 85 5 43
11 85 12 93 2 13 -232 15 -1931 15 l-1934 0 6 -65z m1247 -567 c3 -26 3 -2091
1 -2104 -3 -15 -21 -17 -145 -15 l-142 1 -2 1050 c-2 578 -1 1056 2 1063 3 9
41 12 145 12 77 0 140 -3 141 -7z m824 -1058 l0 -1060 -145 -2 -146 -2 2 1062
c1 584 2 1063 3 1065 0 1 65 1 144 0 l142 -3 0 -1060z m822 3 l-2 -1063 -144
0 -144 0 1 1050 c0 578 1 1056 1 1063 1 9 37 12 145 12 l145 0 -2 -1062z"/>
</g>
</svg>
